<svg width="199" height="64" viewBox="0 0 199 64" fill="none" xmlns="http://www.w3.org/2000/svg">
<mask id="mask0_1_23" style="mask-type:alpha" maskUnits="userSpaceOnUse" x="0" y="0" width="199" height="64">
<rect width="199" height="64" fill="#D9D9D9"/>
</mask>
<g mask="url(#mask0_1_23)">
<ellipse cx="40.5" cy="37" rx="40.5" ry="53" fill="#D4681A"/>
<ellipse cx="99.5" cy="35" rx="28.5" ry="39" fill="#FFD569"/>
<ellipse cx="152" cy="46.5" rx="36.5" ry="53" transform="rotate(-90 152 46.5)" fill="#DF261A"/>
<path d="M2.94 55V53.53C5.46 53.53 6.93 53.0633 7.35 52.13V16.92C6.93 15.9867 5.46 15.52 2.94 15.52V14.05H18.06V15.52C15.54 15.52 14.07 15.9867 13.65 16.92V52.13C14.07 53.0633 15.54 53.53 18.06 53.53V55H2.94ZM27.37 55V53.53C28.4433 53.53 29.3067 53.46 29.96 53.32L14 33.02L31.15 16.01C30.4967 15.6833 29.3067 15.52 27.58 15.52V14.05H38.57V15.52C36.61 15.52 35.1633 16.0567 34.23 17.13L20.16 31.06L36.61 52.41C37.3567 53.1567 38.8267 53.53 41.02 53.53V55H27.37ZM42.7071 55V53.53C45.2271 53.53 46.6971 53.0633 47.1171 52.13V28.47C44.2238 28.2367 42.7538 28.12 42.7071 28.12V26.51C43.5938 26.51 45.3204 26.02 47.8871 25.04C50.5004 24.0133 52.3438 23.5 53.4171 23.5V26.58C55.7504 24.5267 58.0604 23.5 60.3471 23.5C62.4471 23.5 64.1971 23.8967 65.5971 24.69C67.0438 25.4833 67.7671 26.37 67.7671 27.35C67.7671 29.03 66.8338 29.87 64.9671 29.87C63.9871 29.87 63.1004 29.2167 62.3071 27.91C61.5138 26.5567 60.6038 25.88 59.5771 25.88C57.7571 25.88 55.7038 26.8833 53.4171 28.89V52.13C53.8371 53.0633 55.3071 53.53 57.8271 53.53V55H42.7071ZM77.1925 38.13C77.2392 42.05 78.3592 45.5267 80.5525 48.56C82.7925 51.5467 85.2892 53.04 88.0425 53.04C92.1025 53.04 95.3692 51.5 97.8425 48.42L99.5225 49.26C98.1692 51.5 96.3958 53.1333 94.2025 54.16C92.0558 55.1867 89.2092 55.7 85.6625 55.7C83.8892 55.7 82.1858 55.4433 80.5525 54.93C78.9192 54.37 77.3092 53.4833 75.7225 52.27C74.1358 51.01 72.8758 49.1667 71.9425 46.74C71.0092 44.3133 70.5425 41.42 70.5425 38.06C70.5425 33.9533 71.8025 30.5 74.3225 27.7C76.8892 24.9 80.4358 23.5 84.9625 23.5C89.9092 23.5 93.5958 24.9 96.0225 27.7C98.4492 30.4533 99.6625 33.93 99.6625 38.13H77.1925ZM77.2625 35.96H92.8025C92.5225 32.6 91.7992 30.0333 90.6325 28.26C89.5125 26.4867 87.5292 25.6 84.6825 25.6C83.0492 25.6 81.4625 26.5567 79.9225 28.47C78.4292 30.3833 77.5425 32.88 77.2625 35.96ZM110.174 29.38C110.827 29.38 111.387 29.6133 111.854 30.08C112.367 30.5467 112.624 31.27 112.624 32.25C112.624 33.0433 112.297 33.65 111.644 34.07C111.037 34.49 110.314 34.7 109.474 34.7C108.587 34.7 107.864 34.3967 107.304 33.79C106.744 33.1367 106.464 32.2733 106.464 31.2C106.464 28.7733 107.467 26.8833 109.474 25.53C111.481 24.1767 114.327 23.5 118.014 23.5C122.354 23.5 125.527 24.5733 127.534 26.72C129.587 28.8667 130.614 31.7133 130.614 35.26V49.12C130.614 50.6133 130.847 51.71 131.314 52.41C131.827 53.11 132.434 53.46 133.134 53.46C133.741 53.46 134.277 53.2967 134.744 52.97C135.257 52.6433 135.514 52.2467 135.514 51.78H136.774C136.774 53.0867 136.284 54.0433 135.304 54.65C134.371 55.2567 132.714 55.56 130.334 55.56C128.001 55.56 126.344 54.6033 125.364 52.69C122.611 54.6967 119.181 55.7 115.074 55.7C108.074 55.7 104.574 52.8533 104.574 47.16C104.574 45.9467 104.994 44.85 105.834 43.87C106.721 42.89 107.981 42.0733 109.614 41.42C111.247 40.7667 112.787 40.2533 114.234 39.88C115.681 39.46 117.477 39.0167 119.624 38.55C121.817 38.0367 123.381 37.64 124.314 37.36C124.314 33.44 123.801 30.57 122.774 28.75C121.747 26.93 119.927 26.02 117.314 26.02C113.114 26.02 110.734 27.14 110.174 29.38ZM124.734 50.94C124.454 49.9133 124.314 48.6533 124.314 47.16V38.9C123.801 39.0867 122.914 39.3433 121.654 39.67C120.441 39.9967 119.437 40.2767 118.644 40.51C117.897 40.7433 116.987 41.0933 115.914 41.56C114.841 42.0267 114.001 42.4933 113.394 42.96C112.787 43.4267 112.251 44.0567 111.784 44.85C111.317 45.5967 111.084 46.4133 111.084 47.3C111.084 49.54 111.504 51.1033 112.344 51.99C113.231 52.8767 114.537 53.32 116.264 53.32C119.344 53.32 122.167 52.5267 124.734 50.94ZM148.772 14.05V24.2H154.792V26.3H148.772V48.56C148.772 50.0067 149.029 51.1267 149.542 51.92C150.055 52.6667 151.012 53.04 152.412 53.04C153.252 53.04 154.092 52.6433 154.932 51.85C155.819 51.01 156.425 49.8667 156.752 48.42L158.432 49.26C157.452 53.5533 154.652 55.7 150.032 55.7C144.712 55.7 142.052 53.1333 142.052 48V26.3H137.152V24.2C139.345 24.2 141.329 23.29 143.102 21.47C144.875 19.65 145.762 17.1767 145.762 14.05H148.772ZM168.589 38.13C168.636 42.05 169.756 45.5267 171.949 48.56C174.189 51.5467 176.686 53.04 179.439 53.04C183.499 53.04 186.766 51.5 189.239 48.42L190.919 49.26C189.566 51.5 187.792 53.1333 185.599 54.16C183.452 55.1867 180.606 55.7 177.059 55.7C175.286 55.7 173.582 55.4433 171.949 54.93C170.316 54.37 168.706 53.4833 167.119 52.27C165.532 51.01 164.272 49.1667 163.339 46.74C162.406 44.3133 161.939 41.42 161.939 38.06C161.939 33.9533 163.199 30.5 165.719 27.7C168.286 24.9 171.832 23.5 176.359 23.5C181.306 23.5 184.992 24.9 187.419 27.7C189.846 30.4533 191.059 33.93 191.059 38.13H168.589ZM168.659 35.96H184.199C183.919 32.6 183.196 30.0333 182.029 28.26C180.909 26.4867 178.926 25.6 176.079 25.6C174.446 25.6 172.859 26.5567 171.319 28.47C169.826 30.3833 168.939 32.88 168.659 35.96Z" fill="white"/>
</g>
</svg>
